<?xml version="1.0" encoding="UTF-8"?>
<!-- Generator: Adobe Illustrator 26.0.3, SVG Export Plug-In . SVG Version: 6.00 Build 0)  -->
<svg version="1.1" id="Layer_1" xmlns="http://www.w3.org/2000/svg" xmlns:xlink="http://www.w3.org/1999/xlink" x="0px" y="0px" viewBox="0 0 50 50" style="enable-background:new 0 0 50 50;" xml:space="preserve">
<style type="text/css">
	.st0{fill:#0095DA;}
	.st1{fill:#FDFBE0;}
	.st2{fill:#A7A9AC;}
	.st3{fill:#FFFFFF;}
</style>
<g>
	<path class="st0" d="M12.67,36.22c1.5-2.06,5.22-7.2,5.89-8.15c-1.74-1.02-3.63-3.51-3.46-7.37c0.27-6.43,5.34-8.14,8.28-8.14   l0.25,0h13.91l-0.22,0.28c-3.12,4.23-8.85,12.05-9.72,13.28c0.88,0.51,1.84,1.51,2.29,2.74c0.66,1.72,0.47,3.56-0.5,5.12   c-0.55,0.89-1.82,2.46-5.02,2.57H12.47L12.67,36.22z"/>
	<path class="st1" d="M17.91,35.11v-2.38h6.28c1.35-0.06,1.81-0.59,1.95-0.8c0.34-0.56,0.4-1.13,0.17-1.74   c-0.25-0.67-1.13-1.1-1.6-1.26c-1.17-0.37-2.86-0.85-2.86-0.85c-1.94-0.43-5.68-2.53-5.47-7.35c0.24-5.61,4.76-6.91,7.14-6.83h9   v2.38h-9.05c-0.5-0.02-4.55,0-4.75,4.55c-0.18,4.04,3.53,4.9,3.69,4.94c0.07,0.02,1.79,0.51,3,0.89c0.56,0.18,2.43,0.89,3.1,2.67   c0.49,1.31,0.36,2.68-0.38,3.85c-0.41,0.67-1.47,1.8-3.88,1.92L17.91,35.11L17.91,35.11z"/>
	<polygon class="st2" points="4.99,26.81 9.74,26.81 5.86,34.61 14.44,34.61 6.93,20.13 9.39,20.13 18.06,36.55 0.24,36.55  "/>
	<path class="st2" d="M34.41,36.27V19.7h12.41c0,0,2.81-0.15,2.81,2.95v13.62h-2.86V26.08c0,0,0.31-1.99-1.73-1.99h-1.58v12.17H40.7   V24.09h-3.52v12.17H34.41z"/>
	<path d="M17.85,39.06v-2.51h6.54c3-0.15,4.39-1.66,4.95-2.56c0.98-1.57,1.16-3.4,0.5-5.14c-0.9-2.39-3.29-3.31-4-3.54   c-1.2-0.38-2.95-0.88-3.13-0.93c-1.23-0.29-2.59-1.36-2.56-3.46c0.04-2.67,2.24-3.18,3.39-3.18l8.98,0.01v2.48h-8.95   c-0.69,0-0.94,0.51-0.98,0.8c-0.04,0.26,0.11,0.85,0.81,1.02c0.28,0.06,1.98,0.51,3.17,0.89c0.97,0.31,4.26,1.58,5.55,5.02   c0.94,2.49,0.68,5.1-0.72,7.35c-0.82,1.3-2.8,3.53-6.97,3.74L17.85,39.06z"/>
</g>
</svg>